<?xml version="1.0" standalone="no"?>
<!DOCTYPE svg PUBLIC "-//W3C//DTD SVG 20010904//EN"
 "http://www.w3.org/TR/2001/REC-SVG-20010904/DTD/svg10.dtd">
<svg version="1.0" xmlns="http://www.w3.org/2000/svg"
 width="835.000000pt" height="835.000000pt" viewBox="0 0 835.000000 835.000000"
 preserveAspectRatio="xMidYMid meet">
<metadata>
Created by potrace 1.14, written by Peter Selinger 2001-2017
</metadata>
<g transform="translate(0.000000,835.000000) scale(0.100000,-0.100000)"
fill="#000000" stroke="none">
<path d="M2327 5431 c21 -18 76 -70 123 -114 l84 -80 0 -985 0 -985 -26 -21
c-75 -62 -112 -92 -125 -105 -7 -7 -32 -29 -54 -47 l-41 -34 69 -1 c177 -3
666 -4 713 0 l53 3 -34 30 c-19 16 -67 57 -106 91 l-73 61 0 136 c-1 74 0 209
0 299 l1 165 47 55 c25 31 56 67 69 81 12 14 55 66 96 115 137 165 162 194
169 194 4 1 14 -12 23 -28 19 -38 12 -57 -57 -142 -29 -36 -69 -86 -88 -110
-19 -23 -58 -70 -86 -103 -28 -34 -55 -70 -61 -81 -6 -12 -10 -132 -9 -305 1
-264 3 -288 20 -315 11 -17 25 -34 31 -40 6 -5 33 -37 60 -70 27 -33 64 -76
83 -96 19 -20 30 -39 25 -41 -4 -3 -116 -6 -248 -7 -211 -1 -523 -6 -595 -10
l-24 -1 22 -22 23 -23 459 0 c252 0 462 3 466 7 8 9 -12 40 -55 85 -16 18 -36
41 -43 51 -19 27 -100 122 -121 142 -10 10 -28 31 -40 48 -22 29 -23 36 -22
299 l1 269 64 79 c73 90 83 102 170 203 34 39 65 72 68 72 9 0 37 -53 273
-517 l199 -392 -28 -25 c-15 -14 -62 -53 -105 -87 -43 -33 -76 -63 -73 -66 5
-6 50 20 72 41 6 6 28 25 49 41 20 17 48 39 60 50 12 11 47 41 76 67 l54 48 0
272 -1 273 -81 155 c-157 301 -260 506 -278 552 l-18 48 26 32 c13 18 35 44
47 58 12 14 38 45 58 69 21 25 55 65 76 90 22 25 47 54 55 64 9 10 24 28 35
40 72 84 76 92 80 176 3 61 10 50 -108 156 -43 39 -89 80 -103 93 -70 64 -147
94 -184 71 -10 -6 -5 -11 16 -19 70 -26 103 -47 147 -93 26 -26 47 -51 46 -55
-1 -4 4 -19 10 -33 24 -59 -4 -149 -76 -244 -60 -77 -243 -307 -257 -321 -5
-6 -21 -25 -35 -43 -14 -18 -30 -38 -35 -44 -6 -7 -44 -52 -85 -102 -83 -100
-110 -132 -125 -149 -5 -6 -24 -28 -42 -48 -20 -23 -35 -33 -39 -27 -4 6 -7
212 -8 456 l-2 445 34 31 c85 80 142 143 142 160 0 24 -19 13 -94 -55 -33 -29
-73 -65 -90 -80 l-31 -27 -1 -510 c0 -493 -1 -512 -20 -529 -10 -10 -30 -32
-44 -48 -14 -16 -30 -33 -35 -36 -7 -4 -9 191 -8 564 l2 570 68 63 c125 116
183 172 183 177 0 2 -196 4 -435 4 l-436 0 38 -35z"/>
<path d="M3790 5461 c0 -5 40 -43 163 -157 l78 -72 -3 -983 -2 -984 -34 -32
c-19 -17 -72 -62 -118 -100 l-83 -68 37 -5 c31 -4 668 -5 767 -1 l30 1 -40 38
c-22 20 -69 62 -105 92 -36 30 -68 58 -71 63 -3 4 -6 216 -6 472 0 447 0 463
18 460 106 -21 685 -22 804 -2 5 1 10 -11 10 -27 0 -38 -35 -63 -100 -72 -68
-9 -441 -11 -540 -2 -44 3 -81 5 -83 3 -2 -2 -3 -196 -3 -432 l0 -429 58 -63
c32 -34 86 -92 121 -129 34 -36 62 -69 62 -72 0 -4 -64 -7 -142 -7 -290 -2
-364 -2 -393 -3 -16 -1 -93 -3 -170 -5 -181 -3 -175 -3 -175 -19 0 -9 16 -18
43 -23 49 -10 922 -11 932 -1 6 5 -5 21 -40 62 -5 6 -25 29 -44 51 -41 49
-135 156 -179 204 l-32 36 1 387 c1 272 5 390 13 397 6 4 29 7 51 5 57 -4 258
-16 270 -16 49 0 204 13 256 22 35 6 72 12 83 13 18 2 18 -14 20 -393 l1 -395
-94 -80 c-52 -44 -110 -94 -129 -111 l-35 -31 421 1 c231 0 418 4 415 9 -4 7
-49 50 -107 102 -6 6 -32 28 -56 50 l-45 41 1 979 0 980 90 86 c49 48 107 103
128 123 21 20 35 37 30 37 -5 1 -199 2 -432 3 l-424 2 94 -87 c51 -48 104 -98
117 -113 l25 -26 0 -425 1 -424 -40 -9 c-22 -6 -47 -10 -55 -10 -254 -6 -552
1 -582 13 -17 7 -18 35 -18 394 l0 386 95 98 c52 54 93 103 90 108 -14 21 -40
4 -131 -83 l-95 -93 0 -402 c0 -302 -3 -403 -12 -404 -7 0 -20 -2 -29 -4 -10
-2 -28 5 -40 15 l-23 18 -1 396 -2 396 32 28 c17 16 75 74 129 129 l98 99
-436 0 c-239 0 -435 -2 -435 -5z"/>
<path d="M5822 5292 l-99 -97 1 -986 1 -986 50 -58 c28 -31 64 -72 80 -90 17
-18 41 -45 54 -61 13 -16 30 -36 37 -45 12 -14 -9 -15 -219 -17 -352 -2 -648
-10 -655 -16 -13 -14 21 -29 81 -35 61 -6 906 -5 912 1 2 2 -15 24 -38 49 -23
25 -69 76 -102 114 -60 69 -75 85 -130 146 l-31 34 1 961 0 961 67 69 c77 80
108 118 108 132 0 30 -27 13 -118 -76z"/>
</g>
</svg>
