<?xml version="1.0" standalone="no"?>
<!DOCTYPE svg PUBLIC "-//W3C//DTD SVG 20010904//EN"
 "http://www.w3.org/TR/2001/REC-SVG-20010904/DTD/svg10.dtd">
<svg version="1.0" xmlns="http://www.w3.org/2000/svg"
 width="580.000000pt" height="386.000000pt" viewBox="0 0 580.000000 386.000000"
 preserveAspectRatio="xMidYMid meet">

<g transform="translate(0.000000,386.000000) scale(0.100000,-0.100000)"
fill="#000000" stroke="none">
<path d="M1850 1930 l0 -743 51 7 c119 16 229 97 284 210 25 52 29 73 33 174
5 113 5 117 40 164 l34 49 167 -249 c91 -137 182 -272 201 -300 l35 -51 223
-1 c176 0 222 3 216 13 -4 6 -126 184 -271 393 -145 210 -263 384 -263 387 0
4 62 86 137 184 75 98 188 246 251 328 63 83 119 156 125 163 7 9 -35 12 -206
12 l-215 0 -234 -325 -233 -326 -5 188 c-5 177 -7 191 -33 246 -52 113 -166
196 -293 214 l-44 6 0 -743z"/>
<path d="M3854 2661 c-102 -25 -207 -112 -252 -209 -23 -50 -27 -72 -30 -189
l-4 -133 -174 0 -174 0 -2 234 -3 234 -182 -239 -183 -238 0 -149 0 -149 183
-264 182 -264 5 275 5 275 170 0 170 0 5 -190 c5 -184 7 -192 35 -250 54 -112
166 -195 283 -211 l52 -7 0 742 0 741 -27 -1 c-16 -1 -42 -4 -59 -8z"/>
</g>
</svg>
